<svg width="616" height="189" viewBox="0 0 616 189" fill="none" xmlns="http://www.w3.org/2000/svg">
<path fill-rule="evenodd" clip-rule="evenodd" d="M183.157 43.3471C183.157 43.0467 183.157 42.8462 183.057 42.5458C183.057 42.4456 183.057 42.4456 182.756 42.2453C182.656 42.045 182.656 41.8446 182.555 41.7444C182.505 41.6944 182.48 41.6442 182.455 41.5941C182.43 41.5441 182.405 41.494 182.355 41.444L182.054 41.1435C182.004 41.0933 181.954 41.0683 181.903 41.0432C181.853 41.0182 181.803 40.9932 181.753 40.9431L181.453 40.6426L146.064 20.3087C145.162 19.8079 144.059 19.8079 143.157 20.3087L107.769 40.6426L107.468 40.9431C107.368 41.0432 107.267 41.0432 107.167 41.1435L106.866 41.444C106.766 41.5441 106.766 41.6443 106.666 41.7444C106.566 41.9447 106.566 42.045 106.465 42.2453C106.465 42.2953 106.44 42.3454 106.415 42.3955C106.39 42.4457 106.365 42.4958 106.365 42.5458C106.265 42.8462 106.265 43.0467 106.265 43.3471V82.1116L76.6913 99.1399V23.414C76.6913 23.1134 76.6912 22.9131 76.5909 22.6126C76.5909 22.5125 76.4907 22.4123 76.4907 22.3122C76.3905 22.1117 76.3905 21.9114 76.2902 21.8113C76.24 21.7611 76.215 21.7111 76.1899 21.661C76.1649 21.611 76.1399 21.5609 76.0897 21.5108L75.7889 21.2102C75.7389 21.1602 75.6888 21.1352 75.6388 21.1101C75.5886 21.0851 75.5385 21.0601 75.4883 21.0099L75.1875 20.7095L39.7992 0.375641C38.897 -0.125214 37.7942 -0.125214 36.892 0.375641L1.50366 20.7095L1.203 21.0099C1.10266 21.1101 1.00244 21.1101 0.902222 21.2102L0.60144 21.5108C0.501221 21.611 0.501221 21.7111 0.401001 21.8113C0.350708 21.9115 0.325684 21.9867 0.300537 22.0619C0.275513 22.137 0.250488 22.2121 0.200439 22.3122C0.200439 22.3122 0.10022 22.4123 0.10022 22.5125C0.0362549 22.7043 0.0130615 22.8554 0.00476074 23.0176C0 23.1095 0 23.2051 0 23.3138V144.716C0 145.818 0.60144 146.819 1.50366 147.32L72.3805 188.088C72.4808 188.138 72.556 188.163 72.6313 188.188C72.7064 188.213 72.7816 188.238 72.8817 188.288C72.8817 188.288 72.9819 188.388 73.0823 188.388C73.5835 188.489 74.0847 188.489 74.5859 188.388C74.6862 188.388 74.6862 188.288 74.7865 188.288C74.9332 188.288 75.0262 188.235 75.1443 188.167C75.1875 188.142 75.234 188.115 75.2877 188.088L146.164 147.32C147.067 146.719 147.668 145.818 147.668 144.716V105.951L181.653 86.4187C182.555 85.8178 183.157 84.9163 183.157 83.8145V43.3471ZM177.242 48.3555V82.0114L147.668 98.9396V65.2836L164.811 55.4673L177.242 48.3555ZM125.012 118.873L141.854 109.257V142.913L76.8917 180.275V146.319L125.012 118.873ZM6.01501 142.913V28.4223L18.4459 35.7344L35.5887 45.5508V124.682V124.983C35.689 125.083 35.689 125.283 35.689 125.384C35.689 125.428 35.7089 125.473 35.731 125.517C35.7584 125.573 35.7892 125.629 35.7892 125.684C35.8275 125.761 35.8512 125.823 35.8715 125.876C35.9042 125.961 35.9279 126.023 35.9897 126.085C35.9897 126.116 35.9995 126.147 36.016 126.178C36.0522 126.247 36.1212 126.316 36.1902 126.385C36.1902 126.485 36.29 126.585 36.39 126.685L36.3907 126.686C36.491 126.786 36.5912 126.786 36.6914 126.886C36.7917 126.886 36.892 126.986 36.9922 127.086L70.9769 146.319V180.275L6.01501 142.913ZM9.02246 23.3138L38.496 6.28543L67.9695 23.3138L38.496 40.3421L9.02246 23.3138ZM70.9769 102.445L53.8342 112.262C53.8342 112.262 41.5034 119.474 41.4032 119.374V45.3505L58.546 35.5341L70.9769 28.4223V102.445ZM115.287 43.3471L144.761 26.3188C144.761 26.3188 174.335 43.3471 174.234 43.3471L144.761 60.3754L115.287 43.3471ZM124.711 55.6676L141.854 65.4839V99.1399L129.423 92.0281L112.28 82.2118V48.5558L124.711 55.6676ZM117.192 116.469L73.8843 141.21C73.8843 141.21 44.511 124.482 44.4108 124.582L75.3879 106.753L109.373 87.2201L138.846 104.148L117.192 116.469ZM225.562 140.509V57.8712H209.623V154.732H255.437V140.509H225.562ZM311.777 90.2251V98.9396C309.772 95.7343 306.965 93.3302 303.156 91.4272C299.346 89.524 295.637 88.6225 291.828 88.6225C286.915 88.6225 282.505 89.524 278.394 91.3269C274.484 93.0298 270.875 95.534 267.968 98.7393C265.061 101.844 262.755 105.551 261.151 109.557C259.547 113.664 258.745 117.971 258.745 122.479C258.645 126.986 259.547 131.394 261.151 135.5C262.755 139.507 265.061 143.213 267.968 146.318C270.875 149.524 274.484 152.028 278.394 153.731C282.404 155.534 286.915 156.435 291.828 156.435C295.637 156.435 299.447 155.434 303.156 153.631C306.865 151.828 309.772 149.223 311.777 146.018V154.732H326.915V90.2251H311.777ZM311.777 122.479C311.777 125.183 311.276 127.888 310.374 130.392C309.472 132.796 308.168 135 306.464 136.903C304.76 138.706 302.755 140.208 300.449 141.31C298.143 142.412 295.537 143.013 292.63 143.013C289.823 143.013 287.216 142.412 284.911 141.31C282.705 140.309 280.7 138.806 278.996 136.903C277.292 135.1 276.089 132.896 275.186 130.392C274.284 127.888 273.883 125.283 273.883 122.479C273.883 119.774 274.284 117.07 275.186 114.566C275.988 112.162 277.292 109.958 278.996 108.055C280.6 106.252 282.605 104.749 284.911 103.647C287.216 102.546 289.723 101.945 292.63 101.945C295.437 101.945 298.143 102.546 300.449 103.647C302.755 104.649 304.76 106.152 306.464 108.055C308.168 109.958 309.472 112.162 310.374 114.566C311.276 117.07 311.777 119.674 311.777 122.479ZM379.747 90.2251H338.745V154.732H353.882V105.05H379.747V90.2251ZM434.484 90.2251V98.9396C432.479 95.7343 429.571 93.2301 425.862 91.4272C422.052 89.524 418.343 88.6225 414.534 88.6225C409.621 88.6225 405.21 89.524 401.1 91.3269C397.19 93.0298 393.581 95.534 390.674 98.7393C387.667 101.844 385.461 105.551 383.857 109.557C382.253 113.664 381.451 117.971 381.451 122.479C381.351 126.986 382.253 131.394 383.857 135.5C385.461 139.507 387.767 143.213 390.674 146.318C393.581 149.524 397.19 152.028 401.1 153.731C405.21 155.534 409.621 156.435 414.534 156.435C418.343 156.435 422.153 155.434 425.862 153.631C429.571 151.828 432.479 149.223 434.484 146.018V154.732H449.621V90.2251H434.484ZM434.484 122.479C434.484 125.183 433.982 127.888 433.08 130.392C432.278 132.796 430.975 135 429.17 136.903C427.466 138.706 425.461 140.208 423.155 141.31C420.849 142.412 418.243 143.013 415.336 143.013C412.529 143.013 409.922 142.412 407.616 141.31C405.411 140.309 403.406 138.806 401.702 136.903C399.997 135.1 398.794 132.896 397.892 130.392C396.99 127.888 396.589 125.283 396.589 122.479C396.589 119.774 396.99 117.07 397.892 114.566C398.694 112.162 399.997 109.958 401.702 108.055C403.306 106.252 405.311 104.749 407.616 103.647C409.922 102.546 412.428 101.945 415.336 101.945C418.143 101.945 420.849 102.546 423.155 103.647C425.461 104.649 427.466 106.152 429.17 108.055C430.875 109.958 432.178 112.162 433.08 114.566C433.982 117.07 434.484 119.674 434.484 122.479ZM525.51 90.2251H510.172L491.125 139.607L472.177 90.2251H456.839L481.802 154.732H500.749L525.51 90.2251ZM590.372 128.088C592.979 106.853 578.944 88.6225 558.392 88.6225C539.846 88.6225 525.21 103.748 525.21 122.479C525.21 143.213 539.445 156.435 560.297 156.435C572.026 156.435 579.445 151.928 588.568 142.212L578.342 134.298C578.342 134.298 570.723 144.415 559.194 144.415C545.861 144.415 540.247 133.697 540.247 128.088H590.372ZM576.438 116.869H540.247C540.348 115.668 542.152 100.542 558.192 100.542C574.332 100.542 576.337 115.668 576.438 116.869ZM600.097 57.8712V154.732H615.234V57.8712H600.097Z" fill="#FF2D20"/>
</svg>
