<svg width="720" height="119" viewBox="0 0 720 119" fill="none" xmlns="http://www.w3.org/2000/svg">
<g clip-path="url(#clip0_103_14)">
<path d="M7.84634 96.0354C3.51706 96.0354 0 92.5153 0 88.1651V30.905C0 26.5625 3.51706 23.0347 7.84634 23.0347C12.1756 23.0347 15.6927 26.5625 15.6927 30.905V88.1651C15.6927 92.5153 12.1756 96.0354 7.84634 96.0354Z" fill="#89C8E9"/>
<path d="M102.002 96.0355C97.6655 96.0355 94.1561 92.5153 94.1561 88.1651V30.9512C94.1561 26.6086 97.6655 23.0808 102.002 23.0808C106.339 23.0808 109.849 26.6086 109.849 30.9512V88.1651C109.849 92.5153 106.339 96.0355 102.002 96.0355Z" fill="#0EAEDD"/>
<mask id="mask0_103_14" style="mask-type:luminance" maskUnits="userSpaceOnUse" x="47" y="0" width="16" height="120">
<path d="M47.0781 0H62.7707V119.001H47.0781V0Z" fill="white"/>
</mask>
<g mask="url(#mask0_103_14)">
<path d="M54.9244 119.001C50.5875 119.001 47.0781 115.473 47.0781 111.131V7.9933C47.0781 3.64307 50.5875 0.122925 54.9244 0.122925C59.2614 0.122925 62.7707 3.64307 62.7707 7.9933V111.131C62.7707 115.473 59.2614 119.001 54.9244 119.001Z" fill="#2E80C3"/>
</g>
<path d="M300.1 28.1843C300.1 25.3482 302.391 22.9117 305.226 22.9117C308.191 22.9117 310.49 25.2098 310.49 28.1843V89.8253C310.49 92.7997 308.329 95.0978 305.364 95.0978C302.391 95.0978 300.1 92.7997 300.1 89.8253" fill="#808285"/>
<path d="M398.317 89.8252C398.317 92.7997 396.026 95.0977 393.191 95.0977C390.225 95.0977 387.927 92.7997 387.927 89.8252V82.3161C382.256 90.7091 374.027 95.9125 361.208 95.9125C344.48 95.9125 327.876 82.6543 327.876 59.6426V59.366C327.876 36.4927 344.48 22.9578 361.208 22.9578C374.165 22.9578 382.525 28.0305 387.927 35.8778V5.28022C387.927 2.29808 390.08 -0.00769043 393.06 -0.00769043C396.026 -0.00769043 398.317 2.29808 398.317 5.28022V89.8252ZM338.542 59.2353V59.5043C338.542 76.0136 350.013 86.5741 363.1 86.5741C376.057 86.5741 388.333 75.614 388.333 59.5043V59.2353C388.333 43.1256 376.057 32.2962 363.1 32.2962C349.607 32.2962 338.542 42.3186 338.542 59.2353Z" fill="#808285"/>
<mask id="mask1_103_14" style="mask-type:luminance" maskUnits="userSpaceOnUse" x="664" y="21" width="57" height="76">
<path d="M664.978 21.6436H720.002V96.4121H664.978V21.6436Z" fill="white"/>
</mask>
<g mask="url(#mask1_103_14)">
<path d="M668.311 86.9814C667.368 86.3051 666.426 84.9523 666.426 83.1923C666.426 80.7558 668.449 78.7191 671.016 78.7191C671.958 78.7191 672.901 78.9958 673.583 79.5415C680.732 84.4066 688.149 86.9814 695.704 86.9814C704.071 86.9814 710.148 82.6543 710.148 75.883V75.614C710.148 68.5737 701.918 65.8682 692.739 63.2934C681.812 60.1807 669.667 56.3915 669.667 43.533V43.264C669.667 31.2125 679.651 23.2268 693.413 23.2268C700.838 23.2268 708.937 25.5326 715.68 29.1834C717.029 29.9981 718.239 31.4892 718.239 33.5182C718.239 35.9547 716.216 37.9837 713.657 37.9837C712.707 37.9837 711.902 37.7147 711.358 37.4457C705.428 34.0563 699.083 32.0272 693.145 32.0272C684.915 32.0272 679.651 36.362 679.651 42.1803V42.4493C679.651 49.0822 688.287 51.6493 697.597 54.4931C708.393 57.7442 719.994 61.9407 719.994 74.5302V74.7993C719.994 88.0651 709.067 95.7818 695.168 95.7818C685.996 95.7818 675.874 92.3923 668.311 86.9814Z" fill="#808285"/>
</g>
<path d="M651.446 52.4179C651.446 36.6694 637.676 22.9578 621.079 22.9578C604.291 22.9578 590.675 36.6156 590.675 53.4555V89.5177C590.675 92.6305 593.073 95.0362 596.176 95.0362C599.28 95.0362 601.532 92.6305 601.532 89.5177L601.525 73.3235V52.4102C601.525 41.5961 610.268 32.8188 621.056 32.8188C631.845 32.8188 640.588 41.5961 640.588 52.4102V89.5177C640.588 92.6305 642.986 95.0362 645.944 95.0362C649.047 95.0362 651.446 92.6305 651.446 89.5177C651.446 89.5177 651.545 55.8073 651.446 52.4179Z" fill="#808285"/>
<path d="M538.302 86.5587C528.854 86.5587 521.406 82.5159 521.406 73.7156V73.4466C521.406 64.6462 528.693 58.9586 541.781 58.9586C550.278 58.9586 562.278 61.6948 562.286 61.9408V61.9561C562.286 74.7839 550.34 86.5587 538.302 86.5587ZM572.139 51.657H572.116C571.174 36.6311 557.841 23.8878 541.842 23.8878H537.191C534.471 23.8878 532.272 26.0937 532.272 28.8222C532.272 31.543 534.471 33.7488 537.191 33.7488H541.819C552.608 33.7488 562.155 42.5261 562.155 53.3402V54.2241C555.949 52.464 549.604 51.2497 540.7 51.2497C523.023 51.2497 510.878 59.097 510.878 73.8539V74.1229C510.878 88.4725 523.491 95.9125 536.44 95.9125C548.21 95.9125 557.481 89.8637 562.286 82.0778V90.0942C562.286 92.8227 564.492 95.0363 567.212 95.0363C569.933 95.0363 572.139 92.8227 572.139 90.0942" fill="#808285"/>
<path d="M508.917 28.8068C508.917 26.0783 506.71 23.8724 503.997 23.8724H500.633C483.845 23.8724 470.229 37.5303 470.229 54.3701V89.5178C470.229 92.6306 472.627 95.0363 475.731 95.0363C478.834 95.0363 481.087 92.6306 481.087 89.5178L481.079 73.3236V53.3248C481.079 42.5108 489.829 33.7335 500.61 33.7335C500.618 33.7335 500.626 33.7335 500.641 33.7335V33.7411H503.997C506.71 33.7411 508.917 31.5353 508.917 28.8068Z" fill="#808285"/>
<path d="M452.988 28.5532C452.988 26.0092 450.927 23.9493 448.399 23.9493H430.177V5.58002C430.177 2.6978 427.833 0.0384784 424.959 0.0154206C421.971 -0.00763711 419.787 2.43648 419.787 5.29564V75.883C419.787 90.0943 428.285 95.6435 439.487 95.6435C443.541 95.6435 446.774 94.9671 449.739 93.7528C451.502 93.0687 452.713 91.5854 452.713 89.6869C452.713 87.2505 450.69 85.2214 448.261 85.2214C447.448 85.2214 445.556 86.1668 441.916 86.1668C434.905 86.1668 430.177 83.054 430.177 74.5303V33.1571H448.399C450.927 33.1571 452.988 31.0972 452.988 28.5532Z" fill="#808285"/>
<path d="M249.481 22.9117C239.528 22.9117 230.754 27.923 225.506 35.5704C220.295 27.9614 211.629 22.9579 201.714 22.9579C185.646 22.9579 172.62 36.0239 172.62 52.1413V89.8253C172.62 92.7997 174.911 95.0978 177.876 95.0978C180.849 95.0978 183.01 92.7997 183.01 89.8253L183.002 51.1421C183.002 40.7892 191.37 32.3962 201.698 32.3962C212.02 32.3962 220.387 40.7892 220.387 51.1421L220.38 85.5058H220.387C220.387 85.5135 220.38 85.5135 220.38 85.5212C220.38 88.4034 222.709 90.7322 225.575 90.7322C228.448 90.7322 230.777 88.4034 230.777 85.5212L230.762 51.096C230.762 40.7431 239.137 32.35 249.458 32.35C259.78 32.35 268.155 40.7431 268.155 51.096V89.7715C268.155 92.7536 270.446 95.0517 273.273 95.0517C276.246 95.0517 278.537 92.7536 278.537 89.7715L278.576 52.1413C278.576 35.5243 264.883 22.9117 249.481 22.9117Z" fill="#808285"/>
</g>
<defs>
<clipPath id="clip0_103_14">
<rect width="720" height="119" fill="white"/>
</clipPath>
</defs>
</svg>
