<svg width="762" height="95" viewBox="0 0 762 95" fill="none" xmlns="http://www.w3.org/2000/svg">
<path d="M78.7 0C57.7133 0 44.5966 10.4933 39.35 31.48C47.22 20.9867 56.4016 17.0517 66.895 19.675C72.882 21.1717 77.1612 25.5151 81.8978 30.3231C89.6139 38.1552 98.5443 47.22 118.05 47.22C139.037 47.22 152.153 36.7266 157.4 15.74C149.53 26.2333 140.348 30.1683 129.855 27.545C123.868 26.0482 119.589 21.7049 114.852 16.8969C107.136 9.06478 98.2056 0 78.7 0ZM39.35 47.22C18.3633 47.22 5.24666 57.7133 0 78.6999C7.87 68.2066 17.0517 64.2716 27.545 66.895C33.532 68.3917 37.8112 72.7351 42.5478 77.5431C50.2639 85.3752 59.1943 94.4399 78.7 94.4399C99.6866 94.4399 112.803 83.9466 118.05 62.96C110.18 73.4533 100.998 77.3883 90.5049 74.7649C84.5179 73.2682 80.2387 68.9248 75.5021 64.1168C67.786 56.2847 58.8556 47.22 39.35 47.22Z" fill="url(#paint0_linear_103_11)"/>
<path d="M236.088 39.7931H222.354V66.3762C222.354 73.4651 227.006 73.3543 236.088 72.9113V83.6552C217.702 85.8705 210.391 80.7754 210.391 66.3762V39.7931H200.201V28.2738H210.391V13.3966L222.354 9.85219V28.2738H236.088V39.7931ZM288.444 28.2738H300.406V83.6552H288.444V75.6803C284.235 81.5508 277.7 85.0952 269.061 85.0952C253.997 85.0952 241.481 72.3574 241.481 55.9645C241.481 39.4609 253.997 26.8339 269.061 26.8339C277.7 26.8339 284.235 30.3783 288.444 36.138V28.2738ZM270.944 73.6866C280.912 73.6866 288.444 66.2655 288.444 55.9645C288.444 45.6636 280.912 38.2425 270.944 38.2425C260.975 38.2425 253.443 45.6636 253.443 55.9645C253.443 66.2655 260.975 73.6866 270.944 73.6866ZM320.344 19.9666C316.135 19.9666 312.701 16.4222 312.701 12.3239C312.701 8.11496 316.135 4.68131 320.344 4.68131C324.553 4.68131 327.986 8.11496 327.986 12.3239C327.986 16.4222 324.553 19.9666 320.344 19.9666ZM314.363 83.6552V28.2738H326.325V83.6552H314.363ZM340.17 83.6552V2.79834H352.133V83.6552H340.17ZM429.777 28.2738H442.405L425.015 83.6552H413.274L401.755 46.3282L390.124 83.6552H378.384L360.994 28.2738H373.621L384.365 66.487L395.995 28.2738H407.403L418.923 66.487L429.777 28.2738ZM457.247 19.9666C453.038 19.9666 449.604 16.4222 449.604 12.3239C449.604 8.11496 453.038 4.68131 457.247 4.68131C461.456 4.68131 464.889 8.11496 464.889 12.3239C464.889 16.4222 461.456 19.9666 457.247 19.9666ZM451.266 83.6552V28.2738H463.228V83.6552H451.266ZM506.204 26.8339C518.609 26.8339 527.47 35.2519 527.47 49.651V83.6552H515.508V50.8694C515.508 42.4515 510.634 38.0209 503.103 38.0209C495.238 38.0209 489.036 42.673 489.036 53.9708V83.6552H477.073V28.2738H489.036V35.3626C492.691 29.603 498.672 26.8339 506.204 26.8339ZM584.181 6.12123H596.143V83.6552H584.181V75.6803C579.972 81.5508 573.437 85.0952 564.797 85.0952C549.734 85.0952 537.218 72.3574 537.218 55.9645C537.218 39.4609 549.734 26.8339 564.797 26.8339C573.437 26.8339 579.972 30.3783 584.181 36.138V6.12123ZM566.68 73.6866C576.649 73.6866 584.181 66.2655 584.181 55.9645C584.181 45.6636 576.649 38.2425 566.68 38.2425C556.712 38.2425 549.18 45.6636 549.18 55.9645C549.18 66.2655 556.712 73.6866 566.68 73.6866ZM636.24 85.0952C619.514 85.0952 606.998 72.3574 606.998 55.9645C606.998 39.4609 619.514 26.8339 636.24 26.8339C647.094 26.8339 656.509 32.4828 660.94 41.1223L650.639 47.1035C648.202 41.8976 642.775 38.5748 636.129 38.5748C626.382 38.5748 618.961 45.9959 618.961 55.9645C618.961 65.9332 626.382 73.3543 636.129 73.3543C642.775 73.3543 648.202 69.9207 650.86 64.8256L661.161 70.696C656.509 79.4463 647.094 85.0952 636.24 85.0952ZM680.877 43.5591C680.877 53.6385 710.672 47.5465 710.672 68.0377C710.672 79.114 701.036 85.0952 689.073 85.0952C677.997 85.0952 670.022 80.1108 666.478 72.1359L676.779 66.1547C678.551 71.139 682.981 74.1296 689.073 74.1296C694.39 74.1296 698.488 72.3574 698.488 67.9269C698.488 58.069 668.693 63.6072 668.693 43.7806C668.693 33.3689 677.665 26.8339 688.963 26.8339C698.045 26.8339 705.577 31.0429 709.454 38.3532L699.374 44.0021C697.381 39.6824 693.504 37.6887 688.963 37.6887C684.643 37.6887 680.877 39.5716 680.877 43.5591ZM731.939 43.5591C731.939 53.6385 761.734 47.5465 761.734 68.0377C761.734 79.114 752.098 85.0952 740.135 85.0952C729.059 85.0952 721.084 80.1108 717.539 72.1359L727.84 66.1547C729.613 71.139 734.043 74.1296 740.135 74.1296C745.452 74.1296 749.55 72.3574 749.55 67.9269C749.55 58.069 719.755 63.6072 719.755 43.7806C719.755 33.3689 728.727 26.8339 740.024 26.8339C749.107 26.8339 756.639 31.0429 760.515 38.3532L750.436 44.0021C748.442 39.6824 744.566 37.6887 740.024 37.6887C735.705 37.6887 731.939 39.5716 731.939 43.5591Z" fill="#2D3748"/>
<defs>
<linearGradient id="paint0_linear_103_11" x1="-437.222" y1="3022.08" x2="13156.8" y2="10860.1" gradientUnits="userSpaceOnUse">
<stop stop-color="#2298BD"/>
<stop offset="1" stop-color="#0ED7B5"/>
</linearGradient>
</defs>
</svg>
