<svg width="800" height="800" viewBox="0 0 800 800" fill="none" xmlns="http://www.w3.org/2000/svg">
<circle cx="399.908" cy="399.908" r="399.908" fill="#28D07E"/>
<path d="M464.569 405.106L557.321 405.106L603.698 485.431L557.321 565.757L464.569 565.757L418.193 485.431L464.569 405.106Z" stroke="#26B974" stroke-width="11"/>
<path d="M600.407 319.674L693.159 319.674L739.535 400L693.159 480.326L600.407 480.326L554.031 400L600.407 319.674Z" stroke="#26B974" stroke-width="11"/>
<path d="M618.247 480.232L710.999 480.232L757.375 560.558L710.999 640.883L618.247 640.883L571.871 560.558L618.247 480.232Z" stroke="#26B974" stroke-width="11"/>
<path fill-rule="evenodd" clip-rule="evenodd" d="M408.196 621.857C407.647 621.308 406.903 621 406.127 621V621C403.519 621 402.213 624.153 404.057 625.997L430.003 651.943C431.847 653.787 435 652.481 435 649.873V649.873C435 649.097 434.692 648.352 434.143 647.803L408.196 621.857ZM435 623.247C435 625.25 432.579 626.252 431.163 624.837V624.837C429.748 623.421 430.75 621 432.753 621V621C433.994 621 435 622.006 435 623.247V623.247ZM435 678.139C435 677.363 434.692 676.619 434.143 676.07L379.93 621.857C379.381 621.308 378.636 621 377.86 621V621C375.252 621 373.946 624.153 375.79 625.997L430.003 680.209C431.847 682.053 435 680.747 435 678.139V678.139ZM435 706.406C435 705.63 434.692 704.885 434.143 704.336L351.663 621.857C351.114 621.308 350.37 621 349.593 621V621C346.986 621 345.68 624.153 347.524 625.997L430.003 708.476C431.847 710.32 435 709.014 435 706.406V706.406ZM435 734.673C435 733.896 434.692 733.152 434.143 732.603L323.396 621.857C322.847 621.308 322.103 621 321.327 621V621C318.719 621 317.413 624.153 319.257 625.997L430.003 736.743C431.847 738.587 435 737.281 435 734.673V734.673ZM435 762.939C435 762.163 434.692 761.419 434.143 760.87L295.13 621.857C294.581 621.308 293.836 621 293.06 621V621C290.452 621 289.146 624.153 290.99 625.997L430.003 765.009C431.847 766.853 435 765.547 435 762.939V762.939ZM417.939 780C420.547 780 421.853 776.847 420.009 775.003L280.997 635.991C279.153 634.147 276 635.453 276 638.061V638.061C276 638.837 276.308 639.582 276.857 640.13L415.87 779.143C416.419 779.692 417.163 780 417.939 780V780ZM389.673 780C392.28 780 393.586 776.847 391.742 775.003L280.997 664.257C279.153 662.413 276 663.719 276 666.327V666.327C276 667.104 276.308 667.848 276.857 668.397L387.603 779.143C388.152 779.692 388.896 780 389.673 780V780ZM361.406 780C364.014 780 365.32 776.847 363.476 775.003L280.997 692.524C279.153 690.68 276 691.986 276 694.594V694.594C276 695.37 276.308 696.115 276.857 696.664L359.336 779.143C359.885 779.692 360.63 780 361.406 780V780ZM333.139 780C335.747 780 337.053 776.847 335.209 775.003L280.997 720.791C279.153 718.947 276 720.253 276 722.861V722.861C276 723.637 276.308 724.381 276.857 724.93L331.07 779.143C331.619 779.692 332.363 780 333.139 780V780ZM304.873 780C307.48 780 308.786 776.847 306.942 775.003L280.997 749.057C279.153 747.213 276 748.519 276 751.127V751.127C276 751.904 276.308 752.648 276.857 753.197L302.803 779.143C303.352 779.692 304.096 780 304.873 780V780ZM278.247 780C280.249 780 281.252 777.579 279.836 776.164V776.164C278.421 774.748 276 775.751 276 777.753V777.753C276 778.994 277.006 780 278.247 780V780Z" fill="#26B974"/>
<path d="M181.958 400C149.396 400 123 409.81 123 421.912C123 434.014 149.396 443.824 181.958 443.824C200.207 443.824 215 439.672 215 434.549C215 429.426 200.207 425.273 181.958 425.273C149.396 425.273 123 435.083 123 447.185C123 459.287 149.396 469.098 181.958 469.098C200.207 469.098 215 464.945 215 459.822C215 454.699 200.207 450.546 181.958 450.546C149.396 450.546 123 460.417 123 472.593C123 484.768 149.396 494.639 181.958 494.639C200.207 494.639 215 490.486 215 485.363C215 480.24 200.207 476.088 181.958 476.088C149.396 476.088 123 485.898 123 498C123 510.102 149.396 519.912 181.958 519.912C200.207 519.912 215 515.76 215 510.637C215 505.514 200.207 501.361 181.958 501.361C149.396 501.361 123 511.171 123 523.273C123 535.375 149.396 545.185 181.958 545.185C200.207 545.185 215 541.032 215 535.91C215 530.787 200.207 526.634 181.958 526.634C149.396 526.634 123 536.445 123 548.546C123 560.647 149.396 570.458 181.958 570.458C200.207 570.458 215 566.305 215 561.182C215 556.06 200.207 551.907 181.958 551.907C149.396 551.907 123 561.777 123 573.953C123 586.129 149.396 596 181.958 596" stroke="#26B974" stroke-width="3" stroke-linecap="round"/>
<path d="M435 186L461.677 215.449L488.354 186L515.001 215.449L541.679 186L568.325 215.449L595.002 186L621.68 215.449L648.357 186L675.034 215.449L701.742 186" stroke="#89DDB6" stroke-width="4" stroke-miterlimit="10" stroke-linecap="round"/>
<circle cx="145.237" cy="147.237" r="7.23684" fill="#B5F5D7"/>
<circle cx="145.237" cy="187.149" r="7.23684" fill="#B5F5D7"/>
<circle cx="145.237" cy="207.763" r="7.23684" fill="#B5F5D7"/>
<circle cx="171.114" cy="147.237" r="7.23684" fill="#B5F5D7"/>
<circle cx="171.114" cy="166.535" r="7.23684" fill="#B5F5D7"/>
<circle cx="192.167" cy="166.535" r="7.23684" fill="#B5F5D7"/>
<circle cx="171.114" cy="187.149" r="7.23684" fill="#B5F5D7"/>
<circle cx="171.114" cy="207.763" r="7.23684" fill="#B5F5D7"/>
<circle cx="192.167" cy="187.149" r="7.23684" fill="#B5F5D7"/>
<circle cx="145.237" cy="166.535" r="7.23684" fill="#B5F5D7"/>
</svg>
