<svg width="1695" height="1695" viewBox="0 0 1695 1695" fill="none" xmlns="http://www.w3.org/2000/svg">
<path d="M1047.84 1038.03L953.945 1153.93L977.309 1022.15L1047.84 1038.03Z" stroke="#28D07E" stroke-width="19"/>
<path d="M672.217 641.074L752.153 543L737.404 670.265L672.217 641.074Z" stroke="#28D07E" stroke-width="19"/>
<path d="M1307.44 1012.78L1492.04 824.257L1278.4 615.069C1299.89 690.724 1349.75 847.158 1223.02 976.588C1192.05 1008.22 1266.4 1013.9 1307.44 1012.78Z" fill="#28D07E" stroke="#28D07E"/>
<line x1="810.545" y1="1447.35" x2="1455.6" y2="788.576" stroke="#28D07E" stroke-width="102"/>
<line x1="863.364" y1="280.852" x2="825.076" y2="1413.4" stroke="#28D07E" stroke-width="102"/>
<path d="M381.65 683.302L197.05 871.829L410.688 1081.02C389.204 1005.36 339.337 848.928 466.071 719.498C497.042 687.869 422.695 682.188 381.65 683.302Z" fill="#28D07E" stroke="#28D07E"/>
<line x1="878.545" y1="248.733" x2="233.49" y2="907.51" stroke="#28D07E" stroke-width="102"/>
<path d="M30.1002 865.807L789.894 89.8506L848.313 30.1891L1036.94 214.89L999.877 959.552L1080.33 977.444L1188.07 867.41C1240.4 813.965 1213.92 624.705 1194.14 536.755L1239.86 413.584L1664.64 829.512L846.427 1665.13L677.088 1499.32L713.902 730.617L637.896 698.182L539.598 798.57C438.65 909.099 468.375 1074.99 495.856 1144.12L459.877 1286.63L30.1002 865.807Z" stroke="#28D07E" stroke-width="42"/>
</svg>
